<svg width="62" height="48" viewBox="0 0 62 48" fill="none" xmlns="http://www.w3.org/2000/svg">
<path d="M42.292 20.498C39.9324 20.4982 38.0061 22.4813 37.8877 24.9756L37.8818 25.2188V41.2539H37.8604C37.5945 45.024 34.4539 47.9998 30.6162 48C26.7784 47.9999 23.637 45.0241 23.3711 41.2539H23.3516V17.9131H23.4092C23.3709 17.4817 23.3516 17.0455 23.3516 16.6055C23.3517 7.43463 31.8315 6.21713e-06 42.292 0C52.7524 0.00014961 61.2323 7.43472 61.2324 16.6055C61.2324 17.0455 61.2122 17.4817 61.1738 17.9131H61.2324V41.2539H61.2119C60.946 45.024 57.8055 47.9999 53.9678 48C50.13 47.9999 46.9896 45.024 46.7236 41.2539H46.7031V25.2188L46.6973 24.9756C46.5789 22.4812 44.6517 20.498 42.292 20.498Z" fill="url(#paint0_linear_593_90)"/>
<mask id="mask0_593_90" style="mask-type:alpha" maskUnits="userSpaceOnUse" x="23" y="0" width="39" height="48">
<path d="M42.292 20.498C39.9324 20.4982 38.0061 22.4813 37.8877 24.9756L37.8818 25.2188V41.2539H37.8604C37.5945 45.024 34.4539 47.9998 30.6162 48C26.7784 47.9999 23.637 45.0241 23.3711 41.2539H23.3516V17.9131H23.4092C23.3709 17.4817 23.3516 17.0455 23.3516 16.6055C23.3517 7.43463 31.8315 6.21713e-06 42.292 0C52.7524 0.00014961 61.2323 7.43472 61.2324 16.6055C61.2324 17.0455 61.2122 17.4817 61.1738 17.9131H61.2324V41.2539H61.2119C60.946 45.024 57.8055 47.9999 53.9678 48C50.13 47.9999 46.9896 45.024 46.7236 41.2539H46.7031V25.2188L46.6973 24.9756C46.5789 22.4812 44.6517 20.498 42.292 20.498Z" fill="url(#paint1_linear_593_90)"/>
</mask>
<g mask="url(#mask0_593_90)">
<path d="M37.6212 24.5186L23.6104 43.3294L26.9833 53.578L44.3671 44.8861L37.6212 24.5186Z" fill="url(#paint2_linear_593_90)"/>
<path d="M46.5725 23.9997C44.3388 6.13026 22.1833 12.5835 22.1833 19.1999L6.22656 41.3836L15.5671 53.189C19.2246 49.8052 32.5617 38.2701 37.8806 24.389C43.6553 19.3655 46.9617 27.1132 46.5725 23.9997Z" fill="url(#paint3_linear_593_90)"/>
<path d="M59.6759 45.2758C51.0618 42.3699 47.0056 28.6704 46.3137 24.1299L41.5137 46.4434L34.1191 48.3893L59.6759 55.6542C63.2651 53.4056 68.29 48.1818 59.6759 45.2758Z" fill="url(#paint4_linear_593_90)"/>
</g>
<path d="M18.9404 20.4971C16.5807 20.4972 14.6535 22.4812 14.5352 24.9756L14.5303 25.2188L14.5293 41.2539H14.5088C14.2429 45.0241 11.1025 48 7.26465 48C3.42685 47.9999 0.286432 45.024 0.0205078 41.2539H0V17.9131H0.0585938C0.0202619 17.4817 1.7952e-06 17.0455 0 16.6055C9.04672e-05 7.43472 8.48007 0.000157027 18.9404 0C29.4009 9.14487e-07 37.8808 7.43463 37.8809 16.6055C37.8809 17.0455 37.8616 17.4817 37.8232 17.9131H37.8809V41.2539H37.8604C37.5945 45.0241 34.454 47.9999 30.6162 48C26.7784 47.9999 23.637 45.0241 23.3711 41.2539H23.3516V25.2188L23.3457 24.9756C23.2274 22.4812 21.3001 20.4972 18.9404 20.4971Z" fill="url(#paint5_linear_593_90)"/>
<mask id="mask1_593_90" style="mask-type:alpha" maskUnits="userSpaceOnUse" x="0" y="0" width="38" height="48">
<path d="M18.9404 20.4971C16.5807 20.4972 14.6535 22.4812 14.5352 24.9756L14.5303 25.2188L14.5293 41.2539H14.5088C14.2429 45.0241 11.1025 48 7.26465 48C3.42685 47.9999 0.286432 45.024 0.0205078 41.2539H0V17.9131H0.0585938C0.0202619 17.4817 1.7952e-06 17.0455 0 16.6055C9.04672e-05 7.43472 8.48007 0.000157027 18.9404 0C29.4009 9.14487e-07 37.8808 7.43463 37.8809 16.6055C37.8809 17.0455 37.8616 17.4817 37.8232 17.9131H37.8809V41.2539H37.8604C37.5945 45.0241 34.454 47.9999 30.6162 48C26.7784 47.9999 23.637 45.0241 23.3711 41.2539H23.3516V25.2188L23.3457 24.9756C23.2274 22.4812 21.3001 20.4972 18.9404 20.4971Z" fill="url(#paint6_linear_593_90)"/>
</mask>
<g mask="url(#mask1_593_90)">
<path d="M14.2706 24.5186L0.259766 43.3294L3.63274 53.578L21.0165 44.8861L14.2706 24.5186Z" fill="url(#paint7_linear_593_90)"/>
<path d="M23.2219 23.9997C20.9882 6.13026 -1.16727 12.5835 -1.16727 19.1999L-17.124 41.3836L-7.78348 53.189C-4.12601 49.8052 9.21111 38.2701 14.53 24.389C20.3048 19.3655 23.6111 27.1132 23.2219 23.9997Z" fill="url(#paint8_linear_593_90)"/>
<path d="M36.3243 45.2756C27.7103 42.3697 23.5243 29.3189 22.8324 24.7783L18.1622 46.4432L10.7676 48.3891L36.3243 55.654C39.9135 53.4053 44.9384 48.1816 36.3243 45.2756Z" fill="url(#paint9_linear_593_90)"/>
</g>
<defs>
<linearGradient id="paint0_linear_593_90" x1="35.9353" y1="24.1297" x2="62.3526" y2="10.8252" gradientUnits="userSpaceOnUse">
<stop stop-color="#0337FC"/>
<stop offset="1" stop-color="#6C8EFF"/>
</linearGradient>
<linearGradient id="paint1_linear_593_90" x1="42.2921" y1="0" x2="42.2921" y2="48" gradientUnits="userSpaceOnUse">
<stop stop-color="#1E50FD"/>
<stop offset="1" stop-color="#123097"/>
</linearGradient>
<linearGradient id="paint2_linear_593_90" x1="26.3347" y1="46.7023" x2="42.285" y2="24.5186" gradientUnits="userSpaceOnUse">
<stop stop-color="#2457FD"/>
<stop offset="1" stop-color="#030E64"/>
</linearGradient>
<linearGradient id="paint3_linear_593_90" x1="21.7941" y1="40.8645" x2="37.9185" y2="12.762" gradientUnits="userSpaceOnUse">
<stop stop-color="#1035BC"/>
<stop offset="1" stop-color="#020E57"/>
</linearGradient>
<linearGradient id="paint4_linear_593_90" x1="54.2272" y1="48.6488" x2="47.0921" y2="33.3407" gradientUnits="userSpaceOnUse">
<stop stop-color="#071C7D"/>
<stop offset="1" stop-color="#0D33E3"/>
</linearGradient>
<linearGradient id="paint5_linear_593_90" x1="12.5838" y1="24.1297" x2="39.0011" y2="10.8252" gradientUnits="userSpaceOnUse">
<stop stop-color="#0337FC"/>
<stop offset="1" stop-color="#6C8EFF"/>
</linearGradient>
<linearGradient id="paint6_linear_593_90" x1="18.9405" y1="0" x2="18.9405" y2="48" gradientUnits="userSpaceOnUse">
<stop stop-color="#1E50FD"/>
<stop offset="1" stop-color="#123097"/>
</linearGradient>
<linearGradient id="paint7_linear_593_90" x1="2.98409" y1="46.7023" x2="18.9344" y2="24.5186" gradientUnits="userSpaceOnUse">
<stop stop-color="#2457FD"/>
<stop offset="1" stop-color="#030E64"/>
</linearGradient>
<linearGradient id="paint8_linear_593_90" x1="-1.55645" y1="40.8645" x2="14.568" y2="12.762" gradientUnits="userSpaceOnUse">
<stop stop-color="#1035BC"/>
<stop offset="1" stop-color="#020E57"/>
</linearGradient>
<linearGradient id="paint9_linear_593_90" x1="30.8757" y1="48.6486" x2="23.7405" y2="33.3405" gradientUnits="userSpaceOnUse">
<stop stop-color="#071C7D"/>
<stop offset="1" stop-color="#0D33E3"/>
</linearGradient>
</defs>
</svg>
