<svg width="256" height="48" viewBox="0 0 256 48" fill="none" xmlns="http://www.w3.org/2000/svg">
<path d="M42.292 20.498C39.9324 20.4982 38.0061 22.4813 37.8877 24.9756L37.8818 25.2188V41.2539H37.8604C37.5945 45.024 34.4539 47.9998 30.6162 48C26.7784 47.9999 23.637 45.0241 23.3711 41.2539H23.3516V17.9131H23.4092C23.3709 17.4817 23.3516 17.0455 23.3516 16.6055C23.3517 7.43463 31.8315 6.21713e-06 42.292 0C52.7524 0.00014961 61.2323 7.43472 61.2324 16.6055C61.2324 17.0455 61.2122 17.4817 61.1738 17.9131H61.2324V41.2539H61.2119C60.946 45.024 57.8055 47.9999 53.9678 48C50.13 47.9999 46.9896 45.024 46.7236 41.2539H46.7031V25.2188L46.6973 24.9756C46.5789 22.4812 44.6517 20.498 42.292 20.498Z" fill="url(#paint0_linear_593_89)"/>
<mask id="mask0_593_89" style="mask-type:alpha" maskUnits="userSpaceOnUse" x="23" y="0" width="39" height="48">
<path d="M42.292 20.498C39.9324 20.4982 38.0061 22.4813 37.8877 24.9756L37.8818 25.2188V41.2539H37.8604C37.5945 45.024 34.4539 47.9998 30.6162 48C26.7784 47.9999 23.637 45.0241 23.3711 41.2539H23.3516V17.9131H23.4092C23.3709 17.4817 23.3516 17.0455 23.3516 16.6055C23.3517 7.43463 31.8315 6.21713e-06 42.292 0C52.7524 0.00014961 61.2323 7.43472 61.2324 16.6055C61.2324 17.0455 61.2122 17.4817 61.1738 17.9131H61.2324V41.2539H61.2119C60.946 45.024 57.8055 47.9999 53.9678 48C50.13 47.9999 46.9896 45.024 46.7236 41.2539H46.7031V25.2188L46.6973 24.9756C46.5789 22.4812 44.6517 20.498 42.292 20.498Z" fill="url(#paint1_linear_593_89)"/>
</mask>
<g mask="url(#mask0_593_89)">
<path d="M37.6212 24.5186L23.6104 43.3294L26.9833 53.578L44.3671 44.8861L37.6212 24.5186Z" fill="url(#paint2_linear_593_89)"/>
<path d="M46.5725 23.9997C44.3388 6.13026 22.1833 12.5835 22.1833 19.1999L6.22656 41.3836L15.5671 53.189C19.2246 49.8052 32.5617 38.2701 37.8806 24.389C43.6553 19.3655 46.9617 27.1132 46.5725 23.9997Z" fill="url(#paint3_linear_593_89)"/>
<path d="M59.6759 45.2758C51.0618 42.3699 47.0056 28.6704 46.3137 24.1299L41.5137 46.4434L34.1191 48.3893L59.6759 55.6542C63.2651 53.4056 68.29 48.1818 59.6759 45.2758Z" fill="url(#paint4_linear_593_89)"/>
</g>
<path d="M18.9404 20.4971C16.5807 20.4972 14.6535 22.4812 14.5352 24.9756L14.5303 25.2188L14.5293 41.2539H14.5088C14.2429 45.0241 11.1025 48 7.26465 48C3.42685 47.9999 0.286432 45.024 0.0205078 41.2539H0V17.9131H0.0585938C0.0202619 17.4817 1.7952e-06 17.0455 0 16.6055C9.04672e-05 7.43472 8.48007 0.000157027 18.9404 0C29.4009 9.14487e-07 37.8808 7.43463 37.8809 16.6055C37.8809 17.0455 37.8616 17.4817 37.8232 17.9131H37.8809V41.2539H37.8604C37.5945 45.0241 34.454 47.9999 30.6162 48C26.7784 47.9999 23.637 45.0241 23.3711 41.2539H23.3516V25.2188L23.3457 24.9756C23.2274 22.4812 21.3001 20.4972 18.9404 20.4971Z" fill="url(#paint5_linear_593_89)"/>
<mask id="mask1_593_89" style="mask-type:alpha" maskUnits="userSpaceOnUse" x="0" y="0" width="38" height="48">
<path d="M18.9404 20.4971C16.5807 20.4972 14.6535 22.4812 14.5352 24.9756L14.5303 25.2188L14.5293 41.2539H14.5088C14.2429 45.0241 11.1025 48 7.26465 48C3.42685 47.9999 0.286432 45.024 0.0205078 41.2539H0V17.9131H0.0585938C0.0202619 17.4817 1.7952e-06 17.0455 0 16.6055C9.04672e-05 7.43472 8.48007 0.000157027 18.9404 0C29.4009 9.14487e-07 37.8808 7.43463 37.8809 16.6055C37.8809 17.0455 37.8616 17.4817 37.8232 17.9131H37.8809V41.2539H37.8604C37.5945 45.0241 34.454 47.9999 30.6162 48C26.7784 47.9999 23.637 45.0241 23.3711 41.2539H23.3516V25.2188L23.3457 24.9756C23.2274 22.4812 21.3001 20.4972 18.9404 20.4971Z" fill="url(#paint6_linear_593_89)"/>
</mask>
<g mask="url(#mask1_593_89)">
<path d="M14.2706 24.5186L0.259766 43.3294L3.63274 53.578L21.0165 44.8861L14.2706 24.5186Z" fill="url(#paint7_linear_593_89)"/>
<path d="M23.2219 23.9997C20.9882 6.13026 -1.16727 12.5835 -1.16727 19.1999L-17.124 41.3836L-7.78348 53.189C-4.12601 49.8052 9.21111 38.2701 14.53 24.389C20.3048 19.3655 23.6111 27.1132 23.2219 23.9997Z" fill="url(#paint8_linear_593_89)"/>
<path d="M36.3243 45.2756C27.7103 42.3697 23.5243 29.3189 22.8324 24.7783L18.1622 46.4432L10.7676 48.3891L36.3243 55.654C39.9135 53.4053 44.9384 48.1816 36.3243 45.2756Z" fill="url(#paint9_linear_593_89)"/>
</g>
<mask id="path-11-outside-1_593_89" maskUnits="userSpaceOnUse" x="78" y="14" width="160" height="29" fill="black">
<rect fill="white" x="78" y="14" width="160" height="29"/>
<path d="M81.7084 15.9739L91.6179 33.4199L101.527 15.9739H104.478V41.6618H101.111V22.7086L92.8366 37.3324H90.3993L82.1253 22.7086V41.6618H78.758V15.9739H81.7084ZM118.225 22.8689C119.999 22.8689 121.603 23.2858 123.035 24.1197C124.468 24.9535 125.579 26.108 126.37 27.5832C127.183 29.037 127.589 30.6726 127.589 32.4898C127.589 34.3071 127.183 35.9534 126.37 37.4286C125.579 38.8824 124.468 40.0262 123.035 40.86C121.603 41.6939 119.999 42.1108 118.225 42.1108C116.429 42.1108 114.815 41.6939 113.382 40.86C111.971 40.0262 110.859 38.8824 110.047 37.4286C109.235 35.9534 108.828 34.3071 108.828 32.4898C108.828 30.6726 109.235 29.037 110.047 27.5832C110.859 26.108 111.971 24.9535 113.382 24.1197C114.815 23.2858 116.429 22.8689 118.225 22.8689ZM118.225 25.7873C117.028 25.7873 115.959 26.0866 115.018 26.6852C114.098 27.2625 113.372 28.0642 112.837 29.0905C112.324 30.0953 112.067 31.2284 112.067 32.4898C112.067 33.7513 112.324 34.8951 112.837 35.9213C113.372 36.9262 114.098 37.7279 115.018 38.3265C115.959 38.9038 117.028 39.1924 118.225 39.1924C119.401 39.1924 120.459 38.9038 121.4 38.3265C122.34 37.7279 123.067 36.9262 123.58 35.9213C124.094 34.8951 124.35 33.7513 124.35 32.4898C124.35 31.2284 124.094 30.0953 123.58 29.0905C123.067 28.0642 122.34 27.2625 121.4 26.6852C120.459 26.0866 119.401 25.7873 118.225 25.7873ZM131.807 41.6618V15.1722H135.11V41.6618H131.807ZM140.294 41.6618V15.1722H143.597V41.6618H140.294ZM156.895 42.1108C155.185 42.1108 153.635 41.6939 152.245 40.86C150.877 40.0262 149.797 38.8717 149.006 37.3965C148.215 35.9213 147.819 34.2858 147.819 32.4898C147.819 30.6939 148.215 29.0584 149.006 27.5832C149.797 26.108 150.877 24.9535 152.245 24.1197C153.635 23.2858 155.185 22.8689 156.895 22.8689C158.456 22.8689 159.803 23.1789 160.936 23.799C162.069 24.419 162.892 25.1673 163.405 26.0438V23.3179H166.708V41.6618H163.405V38.9359C162.892 39.8124 162.069 40.5607 160.936 41.1807C159.803 41.8008 158.456 42.1108 156.895 42.1108ZM157.184 39.1924C158.402 39.1924 159.482 38.9038 160.423 38.3265C161.385 37.7279 162.133 36.9262 162.668 35.9213C163.202 34.8951 163.469 33.7513 163.469 32.4898C163.469 31.2284 163.202 30.0953 162.668 29.0905C162.133 28.0642 161.385 27.2625 160.423 26.6852C159.482 26.0866 158.402 25.7873 157.184 25.7873C155.986 25.7873 154.917 26.0759 153.977 26.6532C153.057 27.2304 152.341 28.0322 151.828 29.0584C151.315 30.0846 151.058 31.2284 151.058 32.4898C151.058 33.7513 151.315 34.8951 151.828 35.9213C152.341 36.9475 153.057 37.7493 153.977 38.3265C154.917 38.9038 155.986 39.1924 157.184 39.1924ZM179.987 18.9885V41.6618H176.619V18.9885H167.383V15.9739H189.191V18.9885H179.987ZM196.011 42.1108C194.301 42.1108 192.751 41.6939 191.361 40.86C189.993 40.0262 188.913 38.8717 188.122 37.3965C187.331 35.9213 186.936 34.2858 186.936 32.4898C186.936 30.6939 187.331 29.0584 188.122 27.5832C188.913 26.108 189.993 24.9535 191.361 24.1197C192.751 23.2858 194.301 22.8689 196.011 22.8689C197.572 22.8689 198.919 23.1789 200.052 23.799C201.185 24.419 202.008 25.1673 202.522 26.0438V23.3179H205.825V41.6618H202.522V38.9359C202.008 39.8124 201.185 40.5607 200.052 41.1807C198.919 41.8008 197.572 42.1108 196.011 42.1108ZM196.3 39.1924C197.519 39.1924 198.598 38.9038 199.539 38.3265C200.501 37.7279 201.249 36.9262 201.784 35.9213C202.318 34.8951 202.586 33.7513 202.586 32.4898C202.586 31.2284 202.318 30.0953 201.784 29.0905C201.249 28.0642 200.501 27.2625 199.539 26.6852C198.598 26.0866 197.519 25.7873 196.3 25.7873C195.103 25.7873 194.034 26.0759 193.093 26.6532C192.174 27.2304 191.457 28.0322 190.944 29.0584C190.431 30.0846 190.175 31.2284 190.175 32.4898C190.175 33.7513 190.431 34.8951 190.944 35.9213C191.457 36.9475 192.174 37.7493 193.093 38.3265C194.034 38.9038 195.103 39.1924 196.3 39.1924ZM211.01 41.6618V15.1722H214.314V41.6618H211.01ZM226.232 33.2595L222.608 37.0758V41.6618H219.305V15.1722H222.608V33.1312L231.748 23.3179H235.629L228.317 31.0467L236.398 41.6618H232.486L226.232 33.2595Z"/>
</mask>
<path d="M81.7084 15.9739L91.6179 33.4199L101.527 15.9739H104.478V41.6618H101.111V22.7086L92.8366 37.3324H90.3993L82.1253 22.7086V41.6618H78.758V15.9739H81.7084ZM118.225 22.8689C119.999 22.8689 121.603 23.2858 123.035 24.1197C124.468 24.9535 125.579 26.108 126.37 27.5832C127.183 29.037 127.589 30.6726 127.589 32.4898C127.589 34.3071 127.183 35.9534 126.37 37.4286C125.579 38.8824 124.468 40.0262 123.035 40.86C121.603 41.6939 119.999 42.1108 118.225 42.1108C116.429 42.1108 114.815 41.6939 113.382 40.86C111.971 40.0262 110.859 38.8824 110.047 37.4286C109.235 35.9534 108.828 34.3071 108.828 32.4898C108.828 30.6726 109.235 29.037 110.047 27.5832C110.859 26.108 111.971 24.9535 113.382 24.1197C114.815 23.2858 116.429 22.8689 118.225 22.8689ZM118.225 25.7873C117.028 25.7873 115.959 26.0866 115.018 26.6852C114.098 27.2625 113.372 28.0642 112.837 29.0905C112.324 30.0953 112.067 31.2284 112.067 32.4898C112.067 33.7513 112.324 34.8951 112.837 35.9213C113.372 36.9262 114.098 37.7279 115.018 38.3265C115.959 38.9038 117.028 39.1924 118.225 39.1924C119.401 39.1924 120.459 38.9038 121.4 38.3265C122.34 37.7279 123.067 36.9262 123.58 35.9213C124.094 34.8951 124.35 33.7513 124.35 32.4898C124.35 31.2284 124.094 30.0953 123.58 29.0905C123.067 28.0642 122.34 27.2625 121.4 26.6852C120.459 26.0866 119.401 25.7873 118.225 25.7873ZM131.807 41.6618V15.1722H135.11V41.6618H131.807ZM140.294 41.6618V15.1722H143.597V41.6618H140.294ZM156.895 42.1108C155.185 42.1108 153.635 41.6939 152.245 40.86C150.877 40.0262 149.797 38.8717 149.006 37.3965C148.215 35.9213 147.819 34.2858 147.819 32.4898C147.819 30.6939 148.215 29.0584 149.006 27.5832C149.797 26.108 150.877 24.9535 152.245 24.1197C153.635 23.2858 155.185 22.8689 156.895 22.8689C158.456 22.8689 159.803 23.1789 160.936 23.799C162.069 24.419 162.892 25.1673 163.405 26.0438V23.3179H166.708V41.6618H163.405V38.9359C162.892 39.8124 162.069 40.5607 160.936 41.1807C159.803 41.8008 158.456 42.1108 156.895 42.1108ZM157.184 39.1924C158.402 39.1924 159.482 38.9038 160.423 38.3265C161.385 37.7279 162.133 36.9262 162.668 35.9213C163.202 34.8951 163.469 33.7513 163.469 32.4898C163.469 31.2284 163.202 30.0953 162.668 29.0905C162.133 28.0642 161.385 27.2625 160.423 26.6852C159.482 26.0866 158.402 25.7873 157.184 25.7873C155.986 25.7873 154.917 26.0759 153.977 26.6532C153.057 27.2304 152.341 28.0322 151.828 29.0584C151.315 30.0846 151.058 31.2284 151.058 32.4898C151.058 33.7513 151.315 34.8951 151.828 35.9213C152.341 36.9475 153.057 37.7493 153.977 38.3265C154.917 38.9038 155.986 39.1924 157.184 39.1924ZM179.987 18.9885V41.6618H176.619V18.9885H167.383V15.9739H189.191V18.9885H179.987ZM196.011 42.1108C194.301 42.1108 192.751 41.6939 191.361 40.86C189.993 40.0262 188.913 38.8717 188.122 37.3965C187.331 35.9213 186.936 34.2858 186.936 32.4898C186.936 30.6939 187.331 29.0584 188.122 27.5832C188.913 26.108 189.993 24.9535 191.361 24.1197C192.751 23.2858 194.301 22.8689 196.011 22.8689C197.572 22.8689 198.919 23.1789 200.052 23.799C201.185 24.419 202.008 25.1673 202.522 26.0438V23.3179H205.825V41.6618H202.522V38.9359C202.008 39.8124 201.185 40.5607 200.052 41.1807C198.919 41.8008 197.572 42.1108 196.011 42.1108ZM196.3 39.1924C197.519 39.1924 198.598 38.9038 199.539 38.3265C200.501 37.7279 201.249 36.9262 201.784 35.9213C202.318 34.8951 202.586 33.7513 202.586 32.4898C202.586 31.2284 202.318 30.0953 201.784 29.0905C201.249 28.0642 200.501 27.2625 199.539 26.6852C198.598 26.0866 197.519 25.7873 196.3 25.7873C195.103 25.7873 194.034 26.0759 193.093 26.6532C192.174 27.2304 191.457 28.0322 190.944 29.0584C190.431 30.0846 190.175 31.2284 190.175 32.4898C190.175 33.7513 190.431 34.8951 190.944 35.9213C191.457 36.9475 192.174 37.7493 193.093 38.3265C194.034 38.9038 195.103 39.1924 196.3 39.1924ZM211.01 41.6618V15.1722H214.314V41.6618H211.01ZM226.232 33.2595L222.608 37.0758V41.6618H219.305V15.1722H222.608V33.1312L231.748 23.3179H235.629L228.317 31.0467L236.398 41.6618H232.486L226.232 33.2595Z" fill="#051561"/>
<path d="M81.7084 15.9739L82.0497 15.7801L81.9368 15.5815H81.7084V15.9739ZM91.6179 33.4199L91.2767 33.6137L91.6179 34.2145L91.9592 33.6137L91.6179 33.4199ZM101.527 15.9739V15.5815H101.299L101.186 15.7801L101.527 15.9739ZM104.478 15.9739H104.87V15.5815H104.478V15.9739ZM104.478 41.6618V42.0542H104.87V41.6618H104.478ZM101.111 41.6618H100.718V42.0542H101.111V41.6618ZM101.111 22.7086H101.503V21.218L100.769 22.5153L101.111 22.7086ZM92.8366 37.3324V37.7248H93.0655L93.1782 37.5256L92.8366 37.3324ZM90.3993 37.3324L90.0577 37.5256L90.1704 37.7248H90.3993V37.3324ZM82.1253 22.7086L82.4669 22.5153L81.7329 21.218V22.7086H82.1253ZM82.1253 41.6618V42.0542H82.5178V41.6618H82.1253ZM78.758 41.6618H78.3655V42.0542H78.758V41.6618ZM78.758 15.9739V15.5815H78.3655V15.9739H78.758ZM81.7084 15.9739L81.3672 16.1678L91.2767 33.6137L91.6179 33.4199L91.9592 33.226L82.0497 15.7801L81.7084 15.9739ZM91.6179 33.4199L91.9592 33.6137L101.869 16.1678L101.527 15.9739L101.186 15.7801L91.2767 33.226L91.6179 33.4199ZM101.527 15.9739V16.3664H104.478V15.9739V15.5815H101.527V15.9739ZM104.478 15.9739H104.085V41.6618H104.478H104.87V15.9739H104.478ZM104.478 41.6618V41.2693H101.111V41.6618V42.0542H104.478V41.6618ZM101.111 41.6618H101.503V22.7086H101.111H100.718V41.6618H101.111ZM101.111 22.7086L100.769 22.5153L92.495 37.1391L92.8366 37.3324L93.1782 37.5256L101.452 22.9018L101.111 22.7086ZM92.8366 37.3324V36.9399H90.3993V37.3324V37.7248H92.8366V37.3324ZM90.3993 37.3324L90.7409 37.1391L82.4669 22.5153L82.1253 22.7086L81.7837 22.9018L90.0577 37.5256L90.3993 37.3324ZM82.1253 22.7086H81.7329V41.6618H82.1253H82.5178V22.7086H82.1253ZM82.1253 41.6618V41.2693H78.758V41.6618V42.0542H82.1253V41.6618ZM78.758 41.6618H79.1504V15.9739H78.758H78.3655V41.6618H78.758ZM78.758 15.9739V16.3664H81.7084V15.9739V15.5815H78.758V15.9739ZM123.035 24.1197L122.838 24.4588V24.4588L123.035 24.1197ZM126.37 27.5832L126.025 27.7687L126.028 27.7746L126.37 27.5832ZM126.37 37.4286L126.027 37.2393L126.026 37.241L126.37 37.4286ZM123.035 40.86L122.838 40.5209V40.5209L123.035 40.86ZM113.382 40.86L113.183 41.1979L113.185 41.1992L113.382 40.86ZM110.047 37.4286L109.703 37.6179L109.704 37.62L110.047 37.4286ZM110.047 27.5832L110.39 27.7746L110.391 27.7725L110.047 27.5832ZM113.382 24.1197L113.185 23.7805L113.183 23.7818L113.382 24.1197ZM115.018 26.6852L115.227 27.0176L115.229 27.0163L115.018 26.6852ZM112.837 29.0905L112.489 28.9092L112.488 28.912L112.837 29.0905ZM112.837 35.9213L112.486 36.0969L112.491 36.1056L112.837 35.9213ZM115.018 38.3265L114.804 38.6555L114.813 38.661L115.018 38.3265ZM121.4 38.3265L121.605 38.6611L121.61 38.6576L121.4 38.3265ZM123.58 35.9213L123.93 36.0998L123.931 36.0968L123.58 35.9213ZM123.58 29.0905L123.229 29.266L123.231 29.2689L123.58 29.0905ZM121.4 26.6852L121.189 27.0164L121.194 27.0197L121.4 26.6852ZM118.225 22.8689V23.2614C119.935 23.2614 121.47 23.6624 122.838 24.4588L123.035 24.1197L123.233 23.7805C121.736 22.9093 120.064 22.4765 118.225 22.4765V22.8689ZM123.035 24.1197L122.838 24.4588C124.207 25.2557 125.268 26.3567 126.025 27.7686L126.37 27.5832L126.716 27.3977C125.891 25.8592 124.729 24.6512 123.233 23.7805L123.035 24.1197ZM126.37 27.5832L126.028 27.7746C126.805 29.1647 127.197 30.7333 127.197 32.4898H127.589H127.982C127.982 30.6118 127.561 28.9093 126.713 27.3917L126.37 27.5832ZM127.589 32.4898H127.197C127.197 34.2463 126.805 35.8266 126.027 37.2393L126.37 37.4286L126.714 37.6179C127.561 36.0802 127.982 34.368 127.982 32.4898H127.589ZM126.37 37.4286L126.026 37.241C125.269 38.6317 124.208 39.7231 122.838 40.5209L123.035 40.86L123.233 41.1992C124.727 40.3293 125.89 39.1331 126.715 37.6162L126.37 37.4286ZM123.035 40.86L122.838 40.5209C121.47 41.3173 119.935 41.7183 118.225 41.7183V42.1108V42.5032C120.064 42.5032 121.736 42.0704 123.233 41.1992L123.035 40.86ZM118.225 42.1108V41.7183C116.492 41.7183 114.947 41.3169 113.58 40.5209L113.382 40.86L113.185 41.1992C114.682 42.0708 116.365 42.5032 118.225 42.5032V42.1108ZM113.382 40.86L113.582 40.5222C112.232 39.7243 111.169 38.6314 110.39 37.2371L110.047 37.4286L109.704 37.62C110.55 39.1334 111.711 40.3282 113.183 41.1979L113.382 40.86ZM110.047 37.4286L110.391 37.2393C109.613 35.8266 109.221 34.2463 109.221 32.4898H108.828H108.436C108.436 34.368 108.856 36.0802 109.703 37.6179L110.047 37.4286ZM108.828 32.4898H109.221C109.221 30.7333 109.613 29.1647 110.39 27.7746L110.047 27.5832L109.704 27.3917C108.856 28.9093 108.436 30.6118 108.436 32.4898H108.828ZM110.047 27.5832L110.391 27.7725C111.17 26.357 112.233 25.2546 113.582 24.4575L113.382 24.1197L113.183 23.7818C111.709 24.6523 110.549 25.8589 109.703 27.3939L110.047 27.5832ZM113.382 24.1197L113.58 24.4588C114.947 23.6628 116.492 23.2614 118.225 23.2614V22.8689V22.4765C116.365 22.4765 114.682 22.9089 113.185 23.7805L113.382 24.1197ZM118.225 25.7873V25.3948C116.959 25.3948 115.815 25.7125 114.807 26.3541L115.018 26.6852L115.229 27.0163C116.102 26.4607 117.096 26.1797 118.225 26.1797V25.7873ZM115.018 26.6852L114.809 26.3529C113.827 26.9697 113.054 27.8253 112.489 28.9092L112.837 29.0905L113.185 29.2717C113.69 28.3031 114.37 27.5553 115.227 27.0176L115.018 26.6852ZM112.837 29.0905L112.488 28.912C111.943 29.9783 111.675 31.1738 111.675 32.4898H112.067H112.46C112.46 31.2831 112.705 30.2123 113.187 29.2689L112.837 29.0905ZM112.067 32.4898H111.675C111.675 33.806 111.943 35.0108 112.486 36.0968L112.837 35.9213L113.188 35.7458C112.705 34.7793 112.46 33.6965 112.46 32.4898H112.067ZM112.837 35.9213L112.491 36.1056C113.055 37.1668 113.827 38.0192 114.804 38.6554L115.018 38.3265L115.232 37.9977C114.37 37.4366 113.688 36.6855 113.184 35.737L112.837 35.9213ZM115.018 38.3265L114.813 38.661C115.82 39.2794 116.961 39.5849 118.225 39.5849V39.1924V38.8C117.094 38.8 116.097 38.5282 115.223 37.992L115.018 38.3265ZM118.225 39.1924V39.5849C119.468 39.5849 120.598 39.2787 121.605 38.661L121.4 38.3265L121.194 37.992C120.32 38.5289 119.333 38.8 118.225 38.8V39.1924ZM121.4 38.3265L121.61 38.6576C122.611 38.0209 123.385 37.1662 123.93 36.0998L123.58 35.9213L123.231 35.7428C122.749 36.6861 122.07 37.4349 121.189 37.9954L121.4 38.3265ZM123.58 35.9213L123.931 36.0968C124.474 35.0108 124.743 33.806 124.743 32.4898H124.35H123.958C123.958 33.6965 123.713 34.7793 123.229 35.7458L123.58 35.9213ZM124.35 32.4898H124.743C124.743 31.1738 124.474 29.9783 123.93 28.912L123.58 29.0905L123.231 29.2689C123.713 30.2123 123.958 31.2831 123.958 32.4898H124.35ZM123.58 29.0905L123.931 28.915C123.387 27.8259 122.611 26.9679 121.605 26.3507L121.4 26.6852L121.194 27.0197C122.07 27.5571 122.748 28.3026 123.229 29.266L123.58 29.0905ZM121.4 26.6852L121.61 26.3541C120.603 25.7132 119.471 25.3948 118.225 25.3948V25.7873V26.1797C119.33 26.1797 120.315 26.46 121.189 27.0163L121.4 26.6852ZM131.807 41.6618H131.415V42.0542H131.807V41.6618ZM131.807 15.1722V14.7798H131.415V15.1722H131.807ZM135.11 15.1722H135.503V14.7798H135.11V15.1722ZM135.11 41.6618V42.0542H135.503V41.6618H135.11ZM131.807 41.6618H132.2V15.1722H131.807H131.415V41.6618H131.807ZM131.807 15.1722V15.5647H135.11V15.1722V14.7798H131.807V15.1722ZM135.11 15.1722H134.718V41.6618H135.11H135.503V15.1722H135.11ZM135.11 41.6618V41.2693H131.807V41.6618V42.0542H135.11V41.6618ZM140.294 41.6618H139.902V42.0542H140.294V41.6618ZM140.294 15.1722V14.7798H139.902V15.1722H140.294ZM143.597 15.1722H143.99V14.7798H143.597V15.1722ZM143.597 41.6618V42.0542H143.99V41.6618H143.597ZM140.294 41.6618H140.687V15.1722H140.294H139.902V41.6618H140.294ZM140.294 15.1722V15.5647H143.597V15.1722V14.7798H140.294V15.1722ZM143.597 15.1722H143.205V41.6618H143.597H143.99V15.1722H143.597ZM143.597 41.6618V41.2693H140.294V41.6618V42.0542H143.597V41.6618ZM152.245 40.86L152.041 41.1952L152.043 41.1966L152.245 40.86ZM149.006 37.3965L149.352 37.2111V37.2111L149.006 37.3965ZM149.006 27.5832L149.352 27.7686V27.7686L149.006 27.5832ZM152.245 24.1197L152.043 23.7831L152.041 23.7845L152.245 24.1197ZM160.936 23.799L161.124 23.4547V23.4547L160.936 23.799ZM163.405 26.0438L163.067 26.2421L163.798 27.4911V26.0438H163.405ZM163.405 23.3179V22.9255H163.013V23.3179H163.405ZM166.708 23.3179H167.101V22.9255H166.708V23.3179ZM166.708 41.6618V42.0542H167.101V41.6618H166.708ZM163.405 41.6618H163.013V42.0542H163.405V41.6618ZM163.405 38.9359H163.798V37.4886L163.067 38.7376L163.405 38.9359ZM160.936 41.1807L161.124 41.525V41.525L160.936 41.1807ZM160.423 38.3265L160.628 38.661L160.63 38.6597L160.423 38.3265ZM162.668 35.9213L163.014 36.1056L163.016 36.1026L162.668 35.9213ZM162.668 29.0905L162.32 29.2718L162.321 29.2748L162.668 29.0905ZM160.423 26.6852L160.212 27.0164L160.221 27.0218L160.423 26.6852ZM153.977 26.6532L153.771 26.3187L153.768 26.3208L153.977 26.6532ZM151.828 29.0584L152.179 29.2339V29.2339L151.828 29.0584ZM151.828 35.9213L152.179 35.7458V35.7458L151.828 35.9213ZM153.977 38.3265L153.768 38.6589L153.771 38.661L153.977 38.3265ZM156.895 42.1108V41.7183C155.252 41.7183 153.772 41.3187 152.447 40.5235L152.245 40.86L152.043 41.1966C153.497 42.069 155.118 42.5032 156.895 42.5032V42.1108ZM152.245 40.86L152.449 40.5249C151.143 39.7291 150.111 38.6275 149.352 37.2111L149.006 37.3965L148.66 37.582C149.483 39.1159 150.61 40.3233 152.041 41.1952L152.245 40.86ZM149.006 37.3965L149.352 37.2111C148.594 35.797 148.212 34.2259 148.212 32.4898H147.819H147.427C147.427 34.3456 147.836 36.0456 148.66 37.582L149.006 37.3965ZM147.819 32.4898H148.212C148.212 30.7538 148.594 29.1827 149.352 27.7686L149.006 27.5832L148.66 27.3977C147.836 28.9341 147.427 30.6341 147.427 32.4898H147.819ZM149.006 27.5832L149.352 27.7686C150.111 26.3522 151.143 25.2506 152.449 24.4548L152.245 24.1197L152.041 23.7845C150.61 24.6564 149.483 25.8638 148.66 27.3977L149.006 27.5832ZM152.245 24.1197L152.447 24.4562C153.772 23.661 155.252 23.2614 156.895 23.2614V22.8689V22.4765C155.118 22.4765 153.497 22.9107 152.043 23.7831L152.245 24.1197ZM156.895 22.8689V23.2614C158.404 23.2614 159.683 23.5608 160.747 24.1432L160.936 23.799L161.124 23.4547C159.922 22.7971 158.508 22.4765 156.895 22.4765V22.8689ZM160.936 23.799L160.747 24.1432C161.835 24.7383 162.598 25.4415 163.067 26.2421L163.405 26.0438L163.744 25.8456C163.186 24.893 162.303 24.0997 161.124 23.4547L160.936 23.799ZM163.405 26.0438H163.798V23.3179H163.405H163.013V26.0438H163.405ZM163.405 23.3179V23.7104H166.708V23.3179V22.9255H163.405V23.3179ZM166.708 23.3179H166.316V41.6618H166.708H167.101V23.3179H166.708ZM166.708 41.6618V41.2693H163.405V41.6618V42.0542H166.708V41.6618ZM163.405 41.6618H163.798V38.9359H163.405H163.013V41.6618H163.405ZM163.405 38.9359L163.067 38.7376C162.598 39.5382 161.835 40.2414 160.747 40.8365L160.936 41.1807L161.124 41.525C162.303 40.88 163.186 40.0867 163.744 39.1341L163.405 38.9359ZM160.936 41.1807L160.747 40.8365C159.683 41.4189 158.404 41.7183 156.895 41.7183V42.1108V42.5032C158.508 42.5032 159.922 42.1826 161.124 41.525L160.936 41.1807ZM157.184 39.1924V39.5849C158.467 39.5849 159.619 39.2801 160.628 38.661L160.423 38.3265L160.217 37.992C159.345 38.5275 158.338 38.8 157.184 38.8V39.1924ZM160.423 38.3265L160.63 38.6597C161.651 38.0244 162.447 37.1712 163.014 36.1056L162.668 35.9213L162.321 35.737C161.819 36.6811 161.119 37.4314 160.215 37.9933L160.423 38.3265ZM162.668 35.9213L163.016 36.1026C163.582 35.0154 163.862 33.8086 163.862 32.4898H163.469H163.077C163.077 33.694 162.822 34.7747 162.32 35.74L162.668 35.9213ZM163.469 32.4898H163.862C163.862 31.1713 163.582 29.9737 163.014 28.9062L162.668 29.0905L162.321 29.2748C162.822 30.2169 163.077 31.2856 163.077 32.4898H163.469ZM162.668 29.0905L163.016 28.9092C162.449 27.8208 161.651 26.9644 160.625 26.3487L160.423 26.6852L160.221 27.0218C161.119 27.5605 161.817 28.3076 162.32 29.2717L162.668 29.0905ZM160.423 26.6852L160.633 26.3541C159.624 25.7117 158.47 25.3948 157.184 25.3948V25.7873V26.1797C158.335 26.1797 159.34 26.4615 160.212 27.0163L160.423 26.6852ZM157.184 25.7873V25.3948C155.92 25.3948 154.779 25.7003 153.771 26.3187L153.977 26.6532L154.182 26.9877C155.056 26.4515 156.053 26.1797 157.184 26.1797V25.7873ZM153.977 26.6532L153.768 26.3208C152.784 26.9385 152.02 27.7961 151.477 28.8829L151.828 29.0584L152.179 29.2339C152.662 28.2682 153.331 27.5223 154.185 26.9855L153.977 26.6532ZM151.828 29.0584L151.477 28.8829C150.934 29.9689 150.666 31.1737 150.666 32.4898H151.058H151.451C151.451 31.2832 151.696 30.2004 152.179 29.2339L151.828 29.0584ZM151.058 32.4898H150.666C150.666 33.806 150.934 35.0108 151.477 36.0968L151.828 35.9213L152.179 35.7458C151.696 34.7793 151.451 33.6965 151.451 32.4898H151.058ZM151.828 35.9213L151.477 36.0968C152.02 37.1836 152.784 38.0412 153.768 38.6589L153.977 38.3265L154.185 37.9942C153.331 37.4574 152.662 36.7115 152.179 35.7458L151.828 35.9213ZM153.977 38.3265L153.771 38.661C154.779 39.2794 155.92 39.5849 157.184 39.5849V39.1924V38.8C156.053 38.8 155.056 38.5282 154.182 37.992L153.977 38.3265ZM179.987 18.9885V18.5961H179.594V18.9885H179.987ZM179.987 41.6618V42.0542H180.379V41.6618H179.987ZM176.619 41.6618H176.227V42.0542H176.619V41.6618ZM176.619 18.9885H177.012V18.5961H176.619V18.9885ZM167.383 18.9885H166.991V19.381H167.383V18.9885ZM167.383 15.9739V15.5815H166.991V15.9739H167.383ZM189.191 15.9739H189.583V15.5815H189.191V15.9739ZM189.191 18.9885V19.381H189.583V18.9885H189.191ZM179.987 18.9885H179.594V41.6618H179.987H180.379V18.9885H179.987ZM179.987 41.6618V41.2693H176.619V41.6618V42.0542H179.987V41.6618ZM176.619 41.6618H177.012V18.9885H176.619H176.227V41.6618H176.619ZM176.619 18.9885V18.5961H167.383V18.9885V19.381H176.619V18.9885ZM167.383 18.9885H167.776V15.9739H167.383H166.991V18.9885H167.383ZM167.383 15.9739V16.3664H189.191V15.9739V15.5815H167.383V15.9739ZM189.191 15.9739H188.798V18.9885H189.191H189.583V15.9739H189.191ZM189.191 18.9885V18.5961H179.987V18.9885V19.381H189.191V18.9885ZM191.361 40.86L191.157 41.1952L191.159 41.1966L191.361 40.86ZM188.122 37.3965L188.468 37.2111V37.2111L188.122 37.3965ZM188.122 27.5832L188.468 27.7686V27.7686L188.122 27.5832ZM191.361 24.1197L191.159 23.7831L191.157 23.7845L191.361 24.1197ZM200.052 23.799L200.241 23.4547V23.4547L200.052 23.799ZM202.521 26.0438L202.183 26.2421L202.914 27.4911V26.0438H202.521ZM202.521 23.3179V22.9255H202.129V23.3179H202.521ZM205.825 23.3179H206.217V22.9255H205.825V23.3179ZM205.825 41.6618V42.0542H206.217V41.6618H205.825ZM202.521 41.6618H202.129V42.0542H202.521V41.6618ZM202.521 38.9359H202.914V37.4886L202.183 38.7376L202.521 38.9359ZM200.052 41.1807L200.241 41.525V41.525L200.052 41.1807ZM199.539 38.3265L199.744 38.661L199.746 38.6597L199.539 38.3265ZM201.784 35.9213L202.13 36.1056L202.132 36.1026L201.784 35.9213ZM201.784 29.0905L201.436 29.2718L201.437 29.2748L201.784 29.0905ZM199.539 26.6852L199.328 27.0164L199.337 27.0218L199.539 26.6852ZM193.093 26.6532L192.888 26.3187L192.884 26.3208L193.093 26.6532ZM190.944 29.0584L191.295 29.2339V29.2339L190.944 29.0584ZM190.944 35.9213L191.295 35.7458V35.7458L190.944 35.9213ZM193.093 38.3265L192.884 38.6589L192.888 38.661L193.093 38.3265ZM196.011 42.1108V41.7183C194.368 41.7183 192.888 41.3187 191.563 40.5235L191.361 40.86L191.159 41.1966C192.613 42.069 194.234 42.5032 196.011 42.5032V42.1108ZM191.361 40.86L191.565 40.5249C190.26 39.7291 189.228 38.6275 188.468 37.2111L188.122 37.3965L187.776 37.582C188.599 39.1159 189.726 40.3233 191.157 41.1952L191.361 40.86ZM188.122 37.3965L188.468 37.2111C187.71 35.797 187.328 34.2259 187.328 32.4898H186.936H186.543C186.543 34.3456 186.952 36.0456 187.776 37.582L188.122 37.3965ZM186.936 32.4898H187.328C187.328 30.7538 187.71 29.1827 188.468 27.7686L188.122 27.5832L187.776 27.3977C186.952 28.9341 186.543 30.6341 186.543 32.4898H186.936ZM188.122 27.5832L188.468 27.7686C189.228 26.3522 190.26 25.2506 191.565 24.4548L191.361 24.1197L191.157 23.7845C189.726 24.6564 188.599 25.8638 187.776 27.3977L188.122 27.5832ZM191.361 24.1197L191.563 24.4562C192.888 23.661 194.368 23.2614 196.011 23.2614V22.8689V22.4765C194.234 22.4765 192.613 22.9107 191.159 23.7831L191.361 24.1197ZM196.011 22.8689V23.2614C197.52 23.2614 198.799 23.5608 199.864 24.1432L200.052 23.799L200.241 23.4547C199.039 22.7971 197.624 22.4765 196.011 22.4765V22.8689ZM200.052 23.799L199.864 24.1432C200.951 24.7383 201.714 25.4415 202.183 26.2421L202.521 26.0438L202.86 25.8456C202.303 24.893 201.419 24.0997 200.241 23.4547L200.052 23.799ZM202.521 26.0438H202.914V23.3179H202.521H202.129V26.0438H202.521ZM202.521 23.3179V23.7104H205.825V23.3179V22.9255H202.521V23.3179ZM205.825 23.3179H205.432V41.6618H205.825H206.217V23.3179H205.825ZM205.825 41.6618V41.2693H202.521V41.6618V42.0542H205.825V41.6618ZM202.521 41.6618H202.914V38.9359H202.521H202.129V41.6618H202.521ZM202.521 38.9359L202.183 38.7376C201.714 39.5382 200.951 40.2414 199.864 40.8365L200.052 41.1807L200.241 41.525C201.419 40.88 202.303 40.0867 202.86 39.1341L202.521 38.9359ZM200.052 41.1807L199.864 40.8365C198.799 41.4189 197.52 41.7183 196.011 41.7183V42.1108V42.5032C197.624 42.5032 199.039 42.1826 200.241 41.525L200.052 41.1807ZM196.3 39.1924V39.5849C197.583 39.5849 198.735 39.2801 199.744 38.661L199.539 38.3265L199.334 37.992C198.461 38.5275 197.454 38.8 196.3 38.8V39.1924ZM199.539 38.3265L199.746 38.6597C200.767 38.0244 201.564 37.1712 202.13 36.1056L201.784 35.9213L201.437 35.737C200.935 36.6811 200.235 37.4314 199.332 37.9933L199.539 38.3265ZM201.784 35.9213L202.132 36.1026C202.698 35.0154 202.978 33.8086 202.978 32.4898H202.586H202.193C202.193 33.694 201.939 34.7747 201.436 35.74L201.784 35.9213ZM202.586 32.4898H202.978C202.978 31.1713 202.698 29.9737 202.13 28.9062L201.784 29.0905L201.437 29.2748C201.939 30.2169 202.193 31.2856 202.193 32.4898H202.586ZM201.784 29.0905L202.132 28.9092C201.565 27.8208 200.767 26.9644 199.741 26.3487L199.539 26.6852L199.337 27.0218C200.235 27.5605 200.934 28.3076 201.436 29.2717L201.784 29.0905ZM199.539 26.6852L199.75 26.3541C198.74 25.7117 197.586 25.3948 196.3 25.3948V25.7873V26.1797C197.451 26.1797 198.456 26.4615 199.328 27.0163L199.539 26.6852ZM196.3 25.7873V25.3948C195.037 25.3948 193.895 25.7003 192.888 26.3187L193.093 26.6532L193.298 26.9877C194.172 26.4515 195.169 26.1797 196.3 26.1797V25.7873ZM193.093 26.6532L192.884 26.3208C191.901 26.9385 191.137 27.7961 190.593 28.8829L190.944 29.0584L191.295 29.2339C191.778 28.2682 192.447 27.5223 193.302 26.9855L193.093 26.6532ZM190.944 29.0584L190.593 28.8829C190.05 29.9689 189.782 31.1737 189.782 32.4898H190.175H190.567C190.567 31.2832 190.812 30.2004 191.295 29.2339L190.944 29.0584ZM190.175 32.4898H189.782C189.782 33.806 190.05 35.0108 190.593 36.0968L190.944 35.9213L191.295 35.7458C190.812 34.7793 190.567 33.6965 190.567 32.4898H190.175ZM190.944 35.9213L190.593 36.0968C191.137 37.1836 191.901 38.0412 192.884 38.6589L193.093 38.3265L193.302 37.9942C192.447 37.4574 191.778 36.7115 191.295 35.7458L190.944 35.9213ZM193.093 38.3265L192.888 38.661C193.895 39.2794 195.037 39.5849 196.3 39.5849V39.1924V38.8C195.169 38.8 194.172 38.5282 193.298 37.992L193.093 38.3265ZM211.01 41.6618H210.618V42.0542H211.01V41.6618ZM211.01 15.1722V14.7798H210.618V15.1722H211.01ZM214.314 15.1722H214.706V14.7798H214.314V15.1722ZM214.314 41.6618V42.0542H214.706V41.6618H214.314ZM211.01 41.6618H211.403V15.1722H211.01H210.618V41.6618H211.01ZM211.01 15.1722V15.5647H214.314V15.1722V14.7798H211.01V15.1722ZM214.314 15.1722H213.921V41.6618H214.314H214.706V15.1722H214.314ZM214.314 41.6618V41.2693H211.01V41.6618V42.0542H214.314V41.6618ZM226.232 33.2595L226.547 33.0252L226.269 32.6512L225.948 32.9893L226.232 33.2595ZM222.608 37.0758L222.324 36.8056L222.216 36.9192V37.0758H222.608ZM222.608 41.6618V42.0542H223.001V41.6618H222.608ZM219.305 41.6618H218.913V42.0542H219.305V41.6618ZM219.305 15.1722V14.7798H218.913V15.1722H219.305ZM222.608 15.1722H223.001V14.7798H222.608V15.1722ZM222.608 33.1312H222.216V34.1284L222.896 33.3987L222.608 33.1312ZM231.748 23.3179V22.9255H231.577L231.461 23.0504L231.748 23.3179ZM235.629 23.3179L235.914 23.5876L236.54 22.9255H235.629V23.3179ZM228.317 31.0467L228.032 30.777L227.803 31.0192L228.005 31.2844L228.317 31.0467ZM236.398 41.6618V42.0542H237.19L236.711 41.4241L236.398 41.6618ZM232.486 41.6618L232.171 41.8961L232.289 42.0542H232.486V41.6618ZM226.232 33.2595L225.948 32.9893L222.324 36.8056L222.608 37.0758L222.893 37.3461L226.517 33.5298L226.232 33.2595ZM222.608 37.0758H222.216V41.6618H222.608H223.001V37.0758H222.608ZM222.608 41.6618V41.2693H219.305V41.6618V42.0542H222.608V41.6618ZM219.305 41.6618H219.698V15.1722H219.305H218.913V41.6618H219.305ZM219.305 15.1722V15.5647H222.608V15.1722V14.7798H219.305V15.1722ZM222.608 15.1722H222.216V33.1312H222.608H223.001V15.1722H222.608ZM222.608 33.1312L222.896 33.3987L232.035 23.5854L231.748 23.3179L231.461 23.0504L222.321 32.8638L222.608 33.1312ZM231.748 23.3179V23.7104H235.629V23.3179V22.9255H231.748V23.3179ZM235.629 23.3179L235.344 23.0482L228.032 30.777L228.317 31.0467L228.602 31.3164L235.914 23.5876L235.629 23.3179ZM228.317 31.0467L228.005 31.2844L236.086 41.8995L236.398 41.6618L236.711 41.4241L228.629 30.809L228.317 31.0467ZM236.398 41.6618V41.2693H232.486V41.6618V42.0542H236.398V41.6618ZM232.486 41.6618L232.801 41.4275L226.547 33.0252L226.232 33.2595L225.917 33.4938L232.171 41.8961L232.486 41.6618Z" fill="#051561" mask="url(#path-11-outside-1_593_89)"/>
<defs>
<linearGradient id="paint0_linear_593_89" x1="35.9353" y1="24.1297" x2="62.3526" y2="10.8252" gradientUnits="userSpaceOnUse">
<stop stop-color="#0337FC"/>
<stop offset="1" stop-color="#6C8EFF"/>
</linearGradient>
<linearGradient id="paint1_linear_593_89" x1="42.2921" y1="0" x2="42.2921" y2="48" gradientUnits="userSpaceOnUse">
<stop stop-color="#1E50FD"/>
<stop offset="1" stop-color="#123097"/>
</linearGradient>
<linearGradient id="paint2_linear_593_89" x1="26.3347" y1="46.7023" x2="42.285" y2="24.5186" gradientUnits="userSpaceOnUse">
<stop stop-color="#2457FD"/>
<stop offset="1" stop-color="#030E64"/>
</linearGradient>
<linearGradient id="paint3_linear_593_89" x1="21.7941" y1="40.8645" x2="37.9185" y2="12.762" gradientUnits="userSpaceOnUse">
<stop stop-color="#1035BC"/>
<stop offset="1" stop-color="#020E57"/>
</linearGradient>
<linearGradient id="paint4_linear_593_89" x1="54.2272" y1="48.6488" x2="47.0921" y2="33.3407" gradientUnits="userSpaceOnUse">
<stop stop-color="#071C7D"/>
<stop offset="1" stop-color="#0D33E3"/>
</linearGradient>
<linearGradient id="paint5_linear_593_89" x1="12.5838" y1="24.1297" x2="39.0011" y2="10.8252" gradientUnits="userSpaceOnUse">
<stop stop-color="#0337FC"/>
<stop offset="1" stop-color="#6C8EFF"/>
</linearGradient>
<linearGradient id="paint6_linear_593_89" x1="18.9405" y1="0" x2="18.9405" y2="48" gradientUnits="userSpaceOnUse">
<stop stop-color="#1E50FD"/>
<stop offset="1" stop-color="#123097"/>
</linearGradient>
<linearGradient id="paint7_linear_593_89" x1="2.98409" y1="46.7023" x2="18.9344" y2="24.5186" gradientUnits="userSpaceOnUse">
<stop stop-color="#2457FD"/>
<stop offset="1" stop-color="#030E64"/>
</linearGradient>
<linearGradient id="paint8_linear_593_89" x1="-1.55645" y1="40.8645" x2="14.568" y2="12.762" gradientUnits="userSpaceOnUse">
<stop stop-color="#1035BC"/>
<stop offset="1" stop-color="#020E57"/>
</linearGradient>
<linearGradient id="paint9_linear_593_89" x1="30.8757" y1="48.6486" x2="23.7405" y2="33.3405" gradientUnits="userSpaceOnUse">
<stop stop-color="#071C7D"/>
<stop offset="1" stop-color="#0D33E3"/>
</linearGradient>
</defs>
</svg>
