<svg width="126" height="112" viewBox="0 0 126 112" fill="none" xmlns="http://www.w3.org/2000/svg">
<path d="M145.265 25.2093L159.201 69.0652L134.259 63.7634L125.702 21.0511L145.265 25.2093ZM113.964 18.5561L122.521 61.2685L54.7841 46.8706L79.9736 11.3312L113.964 18.5561ZM48.6729 4.67801L68.2358 8.83625L43.0463 44.3757L18.3481 39.1259L48.6729 4.67801ZM16.6848 46.9511L41.1385 52.1489L58.1181 120.165C58.4512 121.003 57.3171 121.529 56.7395 120.639L16.6848 46.9511ZM52.8763 54.6438L121.102 69.1457L71.0195 140.032C70.671 140.469 69.9374 140.313 69.7969 139.772L52.8763 54.6438ZM89.6633 126.871L132.84 71.6406L157.538 76.8904L90.7301 127.864C90.0851 128.494 89.0183 127.5 89.6633 126.871Z" fill="white" fill-opacity="0.1"/>
</svg>
