<svg width="18" height="15" viewBox="0 0 18 15" fill="none" xmlns="http://www.w3.org/2000/svg">
<path d="M16.9375 0.03125C17.5 0 18 0.4375 17.9688 0.96875V11.5312C17.9688 12.0312 17.5625 12.4688 17.0312 12.5C15.5 12.5625 12.375 12.875 10.2188 13.9688C9.875 14.125 9.46875 13.9062 9.46875 13.5312V2.15625C9.46875 2 9.5625 1.84375 9.71875 1.75C11.8125 0.46875 15.2188 0.125 16.9375 0.03125ZM8.25 1.75C8.40625 1.84375 8.5 2 8.5 2.15625V13.5312C8.5 13.9062 8.09375 14.125 7.75 13.9688C5.59375 12.875 2.46875 12.5625 0.9375 12.5C0.40625 12.4688 0 12.0312 0 11.5312V0.96875C0 0.4375 0.46875 0 1.03125 0.03125C2.75 0.125 6.15625 0.46875 8.25 1.75Z" fill="#316FFF"/>
</svg>
