<svg width="25" height="20" viewBox="0 0 25 20" fill="none" xmlns="http://www.w3.org/2000/svg">
<path d="M20.625 17.5C20.9375 17.5 21.25 17.8125 21.25 18.125V19.375C21.25 19.7266 20.9375 20 20.625 20H4.375C4.02344 20 3.75 19.7266 3.75 19.375V18.125C3.75 17.8125 4.02344 17.5 4.375 17.5H20.625ZM23.125 5C24.1406 5 25 5.85938 25 6.875C25 7.92969 24.1406 8.75 23.125 8.75C23.0078 8.75 22.8906 8.75 22.8125 8.75L20 16.25H5L2.14844 8.75C2.07031 8.75 1.95312 8.75 1.875 8.75C0.820312 8.75 0 7.92969 0 6.875C0 5.85938 0.820312 5 1.875 5C2.89062 5 3.75 5.85938 3.75 6.875C3.75 7.1875 3.67188 7.42188 3.55469 7.65625L6.40625 9.375C6.99219 9.72656 7.77344 9.53125 8.125 8.90625L11.2891 3.32031C10.8984 3.00781 10.625 2.46094 10.625 1.875C10.625 0.859375 11.4453 0 12.5 0C13.5156 0 14.375 0.859375 14.375 1.875C14.375 2.46094 14.1016 3.00781 13.6719 3.32031L16.8359 8.90625C17.1875 9.53125 17.9688 9.72656 18.5938 9.375L21.4062 7.65625C21.2891 7.42188 21.25 7.1875 21.25 6.875C21.25 5.85938 22.0703 5 23.125 5Z" fill="white"/>
</svg>
