<svg width="20" height="20" viewBox="0 0 20 20" fill="none" xmlns="http://www.w3.org/2000/svg">
<g clip-path="url(#clip0_474_1059)">
<path d="M8.93835 4.22728C10.8783 3.9961 12.8405 4.40618 14.5255 5.3949C16.2104 6.38362 17.5255 7.89664 18.2698 9.70291C18.3392 9.88988 18.3392 10.0956 18.2698 10.2825C17.9638 11.0246 17.5593 11.722 17.0673 12.3562" stroke="black" stroke-width="1.66559" stroke-linecap="round" stroke-linejoin="round"/>
<path d="M11.7292 11.7907C11.258 12.2458 10.6269 12.4976 9.97179 12.492C9.31673 12.4863 8.6901 12.2235 8.22688 11.7603C7.76366 11.2971 7.5009 10.6704 7.49521 10.0154C7.48952 9.3603 7.74134 8.7292 8.19644 8.258" stroke="black" stroke-width="1.66559" stroke-linecap="round" stroke-linejoin="round"/>
<path d="M14.5564 14.5731C13.4517 15.2275 12.2192 15.6366 10.9424 15.7726C9.66563 15.9087 8.37454 15.7685 7.15673 15.3617C5.93891 14.9548 4.82287 14.2907 3.88433 13.4145C2.94578 12.5382 2.20669 11.4704 1.71722 10.2834C1.64781 10.0964 1.64781 9.89071 1.71722 9.70374C2.4556 7.91311 3.75479 6.41024 5.41982 5.42067" stroke="black" stroke-width="1.66559" stroke-linecap="round" stroke-linejoin="round"/>
<path d="M1.66565 1.66559L18.3216 18.3215" stroke="black" stroke-width="1.66559" stroke-linecap="round" stroke-linejoin="round"/>
</g>
<defs>
<clipPath id="clip0_474_1059">
<rect width="19.9871" height="19.9871" fill="white"/>
</clipPath>
</defs>
</svg>
