<svg width="17" height="16" viewBox="0 0 17 16" fill="none" xmlns="http://www.w3.org/2000/svg">
<path d="M7.125 4.09375C5.8125 4.3125 4.625 4.90625 3.71875 5.78125L0.21875 0.8125C0 0.46875 0.25 0 0.65625 0H4.125C4.46875 0 4.8125 0.21875 4.96875 0.5L7.125 4.09375ZM15.625 0C16.0312 0 16.2812 0.46875 16.0625 0.8125L12.5625 5.78125C11.6562 4.90625 10.4688 4.3125 9.15625 4.09375L11.3125 0.5C11.5 0.1875 11.8125 0 12.1562 0H15.625ZM8.15625 5C11.1875 5 13.6562 7.46875 13.6562 10.5C13.6562 13.5625 11.1875 16 8.15625 16C5.09375 16 2.65625 13.5625 2.65625 10.5C2.65625 7.46875 5.09375 5 8.15625 5ZM11.0312 9.9375C11.25 9.71875 11.125 9.375 10.8438 9.3125L9.1875 9.09375L8.46875 7.59375C8.40625 7.46875 8.28125 7.40625 8.125 7.40625C8 7.40625 7.875 7.46875 7.8125 7.59375L7.09375 9.09375L5.4375 9.3125C5.15625 9.375 5.03125 9.71875 5.25 9.9375L6.4375 11.0938L6.15625 12.7188C6.09375 13 6.40625 13.2188 6.6875 13.0938L8.15625 12.3125L9.59375 13.0938C9.875 13.2188 10.1875 13 10.125 12.7188L9.84375 11.0938L11.0312 9.9375Z" fill="#E17100"/>
</svg>
