<svg width="12" height="12" viewBox="0 0 12 12" fill="none" xmlns="http://www.w3.org/2000/svg">
<path d="M3.75 6.75H6.75V7.5H3.75V6.75ZM3.75 4.875H8.25V5.625H3.75V4.875ZM3.75 8.625H5.625V9.375H3.75V8.625Z" fill="#202020"/>
<path d="M9.375 1.875H8.25V1.5C8.25 1.30109 8.17098 1.11032 8.03033 0.96967C7.88968 0.829018 7.69891 0.75 7.5 0.75H4.5C4.30109 0.75 4.11032 0.829018 3.96967 0.96967C3.82902 1.11032 3.75 1.30109 3.75 1.5V1.875H2.625C2.42609 1.875 2.23532 1.95402 2.09467 2.09467C1.95402 2.23532 1.875 2.42609 1.875 2.625V10.5C1.875 10.6989 1.95402 10.8897 2.09467 11.0303C2.23532 11.171 2.42609 11.25 2.625 11.25H9.375C9.57391 11.25 9.76468 11.171 9.90533 11.0303C10.046 10.8897 10.125 10.6989 10.125 10.5V2.625C10.125 2.42609 10.046 2.23532 9.90533 2.09467C9.76468 1.95402 9.57391 1.875 9.375 1.875ZM4.5 1.5H7.5V3H4.5V1.5ZM9.375 10.5H2.625V2.625H3.75V3.75H8.25V2.625H9.375V10.5Z" fill="#202020"/>
</svg>
