<svg width="288" height="277" viewBox="0 0 288 277" fill="none" xmlns="http://www.w3.org/2000/svg">
<path d="M362.5 -73.1553C382.812 -73.1553 400 -55.9678 400 -35.6553V151.845C400 221.376 343.75 276.845 275 276.845H268.75C257.812 276.845 250 269.032 250 258.095V220.595C250 210.438 257.812 201.845 268.75 201.845H275C302.344 201.845 325 179.97 325 151.845V101.845H262.5C241.406 101.845 225 85.4385 225 64.3447V-35.6553C225 -55.9678 241.406 -73.1553 262.5 -73.1553H362.5ZM137.5 -73.1553C157.812 -73.1553 175 -55.9678 175 -35.6553V151.845C175 221.376 118.75 276.845 50 276.845H43.75C32.8125 276.845 25 269.032 25 258.095V220.595C25 210.438 32.8125 201.845 43.75 201.845H50C77.3438 201.845 100 179.97 100 151.845V101.845H37.5C16.4062 101.845 0 85.4385 0 64.3447V-35.6553C0 -55.9678 16.4062 -73.1553 37.5 -73.1553H137.5Z" fill="white"/>
</svg>
