<svg width="20" height="20" viewBox="0 0 20 20" fill="none" xmlns="http://www.w3.org/2000/svg">
<g clip-path="url(#clip0_474_1069)">
<path d="M1.71722 10.2834C1.64781 10.0964 1.64781 9.8907 1.71722 9.70373C2.3932 8.06467 3.54063 6.66323 5.01406 5.67708C6.48749 4.69093 8.22055 4.16449 9.99354 4.16449C11.7665 4.16449 13.4996 4.69093 14.973 5.67708C16.4464 6.66323 17.5939 8.06467 18.2699 9.70373C18.3393 9.8907 18.3393 10.0964 18.2699 10.2834C17.5939 11.9224 16.4464 13.3239 14.973 14.31C13.4996 15.2962 11.7665 15.8226 9.99354 15.8226C8.22055 15.8226 6.48749 15.2962 5.01406 14.31C3.54063 13.3239 2.3932 11.9224 1.71722 10.2834Z" stroke="black" stroke-width="1.66559" stroke-linecap="round" stroke-linejoin="round"/>
<path d="M9.9935 12.4919C11.3733 12.4919 12.4919 11.3734 12.4919 9.99355C12.4919 8.61372 11.3733 7.49516 9.9935 7.49516C8.61368 7.49516 7.49512 8.61372 7.49512 9.99355C7.49512 11.3734 8.61368 12.4919 9.9935 12.4919Z" stroke="black" stroke-width="1.66559" stroke-linecap="round" stroke-linejoin="round"/>
</g>
<defs>
<clipPath id="clip0_474_1069">
<rect width="19.9871" height="19.9871" fill="white"/>
</clipPath>
</defs>
</svg>
